<svg width="22" height="13" viewBox="0 0 22 13" fill="none" xmlns="http://www.w3.org/2000/svg"><path d="M0 13c.15-1.783.696-3.425 1.638-4.925A10.403 10.403 0 0 1 5.4 4.5L3.55 1.3a.54.54 0 0 1-.075-.475A.602.602 0 0 1 3.8.45.527.527 0 0 1 4.25.4c.167.05.3.15.4.3L6.5 3.9C7.933 3.3 9.433 3 11 3c1.567 0 3.067.3 4.5.9L17.35.7c.1-.15.233-.25.4-.3a.527.527 0 0 1 .45.05.601.601 0 0 1 .325.375.54.54 0 0 1-.075.475L16.6 4.5a10.392 10.392 0 0 1 3.762 3.575A10.852 10.852 0 0 1 22 13H0Zm6-2.75c.35 0 .646-.12.888-.363.242-.242.363-.537.362-.887 0-.35-.122-.645-.363-.888A1.196 1.196 0 0 0 6 7.75c-.35.002-.646.123-.888.363S4.749 8.65 4.75 9c0 .35.122.647.363.888.241.242.537.362.887.362Zm10 0c.35 0 .646-.12.888-.363.242-.242.363-.537.362-.887 0-.35-.122-.645-.363-.888A1.196 1.196 0 0 0 16 7.75c-.35.002-.646.123-.888.363s-.363.537-.362.887c0 .35.122.647.363.888.241.242.537.362.887.362Z" fill="#fff"/></svg>